<svg width="109" height="38" viewBox="0 0 109 38" fill="none" xmlns="http://www.w3.org/2000/svg">
<path fill-rule="evenodd" clip-rule="evenodd" d="M14.1799 0.230255C16.5382 0.814687 18.0527 2.32751 18.9993 5.04452C19.6022 6.77493 19.7572 6.45402 19.998 2.97762L20.1073 1.39779L19.2997 0.961789C17.9675 0.242527 16.8547 -0.00474558 15.0204 0.0106778L13.3507 0.0247744L14.1799 0.230255ZM19.171 15.4417C18.7935 17.802 16.7328 19.9366 14.2214 20.5683C12.9237 20.8947 13.2605 21.1194 14.8848 21.0109C16.4175 20.9086 18.0003 20.482 19.2382 19.8377L19.9844 19.4495L19.9485 17.9737C19.8956 15.8031 19.7485 14.7566 19.4962 14.7566C19.3717 14.7566 19.2342 15.0464 19.171 15.4417Z" fill="#343434"/>
<path d="M37.0527 19.6746C33.1657 19.6746 30.5267 17.5835 30.5267 13.9018V2.97476C30.5267 0.647969 31.8462 0.382891 33.3796 0.382891V1.75916e-06H24.5V0.382891C26.0691 0.382891 26.9963 0.942498 26.9963 2.91585V13.6662C26.9963 18.467 30.6694 21 35.2697 21C39.6917 21 43.971 19.0561 43.9354 13.784H43.4718C43.4718 17.554 40.6902 19.6746 37.0527 19.6746ZM39.2637 0.382891C43.4004 0.353439 43.4718 2.97476 43.4718 5.77279H43.9354C43.9354 2.97476 43.8284 0.353439 48.5 0.382891V1.75916e-06H39.2637V0.382891Z" fill="#343434"/>
<path fill-rule="evenodd" clip-rule="evenodd" d="M5.63098 26.1615C2.68886 26.26 2.68143 26.2616 1.5917 26.9508L0.5 27.6414L1.26419 27.7071C1.68449 27.7432 3.01091 27.7432 4.21178 27.7071C6.28229 27.6447 6.45172 27.6066 7.48687 26.9681C8.8135 26.1501 8.78163 26.173 8.66962 26.1122C8.61962 26.0852 7.25216 26.1073 5.63098 26.1615ZM16.6554 26.1529C13.9751 26.2541 13.7572 26.2935 12.7803 26.8521C12.2111 27.1777 11.7452 27.5107 11.7449 27.592C11.7447 27.6733 12.9513 27.74 14.4259 27.74H17.1076L18.356 27.0342C19.0429 26.6461 19.6047 26.2466 19.6047 26.1464C19.6047 26.0461 19.5803 25.9824 19.5501 26.0049C19.52 26.0272 18.2176 26.0937 16.6554 26.1529ZM49.7356 26.1615C46.9341 26.2553 46.742 26.2884 45.8601 26.829C45.3496 27.1418 44.9321 27.4819 44.9321 27.5845C44.9321 27.6958 46.0596 27.7449 47.716 27.7063C50.4749 27.6419 50.5096 27.6352 51.5915 26.9681C52.9181 26.1501 52.8863 26.173 52.7742 26.1122C52.7242 26.0852 51.3568 26.1073 49.7356 26.1615ZM60.7618 26.1615C58.0775 26.2549 57.867 26.2924 56.8862 26.8507C56.3157 27.1755 55.8491 27.5084 55.8491 27.5906C55.8491 27.6727 57.0526 27.74 58.5238 27.7398H61.1984L62.5801 26.9719C63.3399 26.5495 63.8803 26.1722 63.781 26.1333C63.6816 26.0947 62.3229 26.1073 60.7618 26.1615ZM71.8971 26.1529C69.2755 26.2519 68.9794 26.303 68.0216 26.8215C67.451 27.1303 66.9844 27.4703 66.9844 27.577C66.9844 27.698 68.0366 27.7459 69.7683 27.7039C72.5056 27.6374 72.5713 27.6252 73.6984 26.9681C74.3287 26.6006 74.8447 26.2243 74.8447 26.1321C74.8447 26.0398 74.82 25.9824 74.7901 26.0049C74.7602 26.0272 73.4582 26.0937 71.8971 26.1529ZM83.2508 26.1615C80.5665 26.2549 80.356 26.2924 79.3752 26.8507C78.8047 27.1755 78.3381 27.5084 78.3381 27.5906C78.3381 27.6727 79.5416 27.7398 81.0128 27.7394L83.6874 27.739L84.9975 27.0281C85.718 26.6371 86.3385 26.2912 86.3767 26.2592C86.5721 26.0949 85.8333 26.0718 83.2508 26.1615ZM105.411 26.1615C102.599 26.2557 102.413 26.2878 101.426 26.8521C100.857 27.1777 100.391 27.5174 100.391 27.6072C100.391 27.6972 101.692 27.7416 103.283 27.7059C106.167 27.6416 106.18 27.6392 107.268 26.9681C108.595 26.1501 108.563 26.173 108.451 26.1122C108.401 26.0852 107.033 26.1073 105.411 26.1615ZM23.9169 26.7791C23.3466 27.1163 22.8798 27.4774 22.8798 27.5818C22.8798 27.6966 23.9785 27.7457 25.6637 27.7063L28.4475 27.6414L30.8433 26.1615L27.8988 26.1639C24.9744 26.1661 24.9468 26.1704 23.9169 26.7791ZM34.8379 26.8154C34.2697 27.1611 33.8029 27.5107 33.8007 27.592C33.7986 27.6733 35.0003 27.7398 36.4715 27.7394L39.1461 27.739L40.4562 27.0281C41.1767 26.6371 41.807 26.2823 41.8573 26.2395C41.9073 26.1967 40.5808 26.1673 38.9097 26.1742L35.871 26.1868L34.8379 26.8154ZM90.5651 26.7742C90.0247 27.0942 89.5472 27.4498 89.5038 27.5642C89.4505 27.7053 90.33 27.7507 92.233 27.7051C94.9112 27.6412 95.0891 27.6108 96.0782 27.0492C96.6487 26.7255 97.1153 26.3932 97.1153 26.3109C97.1153 26.2288 95.8625 26.1685 94.3315 26.1769C91.6298 26.1917 91.5186 26.2095 90.5651 26.7742Z" fill="#343434"/>
<path d="M76.2272 20.722C75.9207 20.722 75.6701 20.7966 75.6701 20.8876C75.6701 20.9937 76.9042 21.0532 79.6701 21.0532C82.4359 21.0532 83.9845 20.9937 83.9845 20.8876C83.9845 20.7966 83.7338 20.722 83.4273 20.722C82.6508 20.722 82.0755 20.2129 81.8528 19.3285C81.7278 18.8318 81.6711 15.9963 81.673 10.7943C81.6711 5.59231 81.7278 2.23729 81.8528 1.7406C82.0755 0.856163 82.6508 0.347057 83.4273 0.347057C83.7338 0.347057 83.9845 0.272555 83.9845 0.181496C83.9845 0.0753697 82.7503 0.0159319 79.9845 0.0159319C77.2186 0.0159319 75.6701 0.0753697 75.6701 0.181496C75.6701 0.272555 75.9207 0.347057 76.2272 0.347057C77.0037 0.347057 77.579 0.856163 77.8017 1.7406C77.9267 2.23729 78.0018 5.59231 78 10.7943C78.0018 15.9963 77.9267 18.8318 77.8017 19.3285C77.579 20.2129 77.0037 20.722 76.2272 20.722Z" fill="#343434"/>
<path fill-rule="evenodd" clip-rule="evenodd" d="M102.154 20.6647C106.223 19.1997 108.541 15.8651 108.781 11.1315C109.084 5.15049 105.709 0.71059 100.352 0.0412196C99.1929 -0.103648 98.9419 0.179796 99.9948 0.444862C102.193 0.998339 103.746 2.72086 104.419 5.35182C105.028 7.73493 105.12 11.9596 104.62 14.5603C103.981 17.8808 102.512 19.9098 100.26 20.5836C99.7822 20.7266 99.3909 20.8757 99.3909 20.9147C99.3909 21.1156 101.408 20.9329 102.154 20.6647Z" fill="#343434"/>
<path fill-rule="evenodd" clip-rule="evenodd" d="M55.6463 20.6647C51.5768 19.1997 49.2586 15.8651 49.0188 11.1315C48.716 5.15049 52.0905 0.71059 57.4478 0.0412196C58.6071 -0.103648 58.8581 0.179796 57.8052 0.444862C55.6067 0.998339 54.0538 2.72086 53.3812 5.35182C52.772 7.73493 52.6797 11.9596 53.1801 14.5603C53.819 17.8808 55.2875 19.9098 57.5398 20.5836C58.0178 20.7266 58.4091 20.8757 58.4091 20.9147C58.4091 21.1156 56.3915 20.9329 55.6463 20.6647Z" fill="#343434"/>
<path fill-rule="evenodd" clip-rule="evenodd" d="M93.6463 20.6647C89.5768 19.1997 87.2586 15.8651 87.0188 11.1315C86.716 5.15049 90.0905 0.71059 95.4478 0.0412196C96.6071 -0.103648 96.8581 0.179796 95.8053 0.444862C93.6067 0.998339 92.0538 2.72086 91.3812 5.35182C90.772 7.73493 90.6798 11.9596 91.1801 14.5603C91.819 17.8808 93.2875 19.9098 95.5398 20.5836C96.0178 20.7266 96.4091 20.8757 96.4091 20.9147C96.4091 21.1156 94.3915 20.9329 93.6463 20.6647Z" fill="#343434"/>
<path fill-rule="evenodd" clip-rule="evenodd" d="M64.0537 20.6647C68.1232 19.1997 70.4414 15.8651 70.6812 11.1315C70.984 5.15049 67.6095 0.71059 62.2522 0.0412196C61.0929 -0.103648 60.8419 0.179796 61.8948 0.444862C64.0933 0.998339 65.6462 2.72086 66.3188 5.35182C66.928 7.73493 67.0203 11.9596 66.5199 14.5603C65.881 17.8808 64.4125 19.9098 62.1602 20.5836C61.6822 20.7266 61.2909 20.8757 61.2909 20.9147C61.2909 21.1156 63.3085 20.9329 64.0537 20.6647Z" fill="#343434"/>
<path fill-rule="evenodd" clip-rule="evenodd" d="M7.51708 20.6647C3.22052 19.1995 0.772981 15.8646 0.519872 11.1305C0.200164 5.14901 3.76292 0.708696 9.41906 0.0392626C10.643 -0.105618 10.908 0.177852 9.79646 0.442943C7.4753 0.996472 5.83568 2.71915 5.12565 5.35036C4.48239 7.73369 4.38503 11.9588 4.91327 14.5597C5.58782 17.8805 7.13828 19.9097 9.51625 20.5836C10.0209 20.7266 10.4339 20.8756 10.4339 20.9147C10.4339 21.1156 8.30385 20.9329 7.51708 20.6647Z" fill="#343434"/>
<path d="M4.52433 34.186H4.3908C4.17087 35.4599 2.78058 35.7052 2.24646 35.7606V35.9031H4.52433V34.186ZM1.75946 31.1711C1.75946 30.6014 2.1522 30.4669 2.48995 30.4669V30.3323H0V30.4669C0.337754 30.4669 0.620525 30.6884 0.620525 31.1711V34.8823C0.620525 35.4204 0.400592 35.7685 0.0628379 35.7685V35.9031H1.75946V31.1711Z" fill="#343434"/>
<path d="M8.27098 35.3017C7.74471 35.183 7.35198 34.7794 7.28914 34.004H9.78695C9.78695 32.8249 9.2921 32.2315 8.24742 32.184V32.3185C8.59303 32.453 8.82867 33.0228 8.82867 33.8694H7.28914C7.28914 33.1968 7.54049 32.4688 7.92537 32.3185V32.1919C6.94353 32.271 6.27588 33.0465 6.27588 34.091C6.27588 35.0168 6.9828 35.9743 8.01178 35.9743C9.06431 35.9743 9.52774 35.3492 9.65342 34.9377L9.51989 34.8665C9.32352 35.2384 8.69514 35.3966 8.27098 35.3017Z" fill="#343434"/>
<path d="M12.398 33.5054C12.6022 33.363 12.6572 33.0861 12.5158 32.8803C12.4451 32.7774 12.343 32.7221 12.2252 32.7062C12.1859 32.7062 12.1937 32.6271 12.3116 32.5321L12.2566 32.4055C11.9188 32.6113 11.8246 32.7933 11.7539 32.912C11.6753 33.0465 11.6832 33.2364 11.7774 33.3867C11.9188 33.5925 12.1937 33.64 12.398 33.5054ZM14.8172 35.4916C14.4324 35.4916 14.4402 34.9377 14.4402 34.9377V33.7587C14.4402 32.8249 14.1574 32.1761 13.1285 32.1761C13.1285 32.1761 12.8457 32.1602 12.5472 32.2631L12.6022 32.3818C13.0735 32.2394 13.4505 32.6429 13.4505 33.3867V33.8773C12.0759 34.2255 11.4161 34.3046 11.4161 35.1672C11.4161 35.9743 12.3194 35.9743 12.3194 35.9743C12.7043 35.9743 13.0421 35.7844 13.2541 35.5865L13.1599 35.452C13.097 35.4837 13.0185 35.4916 12.9321 35.4916C12.4215 35.4916 12.4215 34.9693 12.4215 34.9693C12.4215 34.5658 12.6807 34.1939 13.4505 34.0198V35.2621C13.4505 35.9743 14.2438 35.9743 14.2438 35.9743C14.7387 35.9743 15.1 35.6657 15.1628 35.4125L15.0293 35.3571C14.9822 35.4916 14.8172 35.4916 14.8172 35.4916Z" fill="#343434"/>
<path d="M18.331 35.4125C17.9383 35.4125 17.7498 35.183 17.7498 34.7399V32.3818H18.653L18.6845 32.2473H17.7498V31.0208L16.7679 31.1869V32.2473H16.3516L16.3752 32.3818H16.7679V34.7636C16.7679 35.7211 17.1371 35.9743 17.7576 35.9743C18.2839 35.9743 18.763 35.5786 18.9201 35.2067L18.8023 35.1355C18.7316 35.2542 18.5588 35.4125 18.331 35.4125Z" fill="#343434"/>
<path d="M21.4769 34.9298V30L20.1024 30.3323V30.4669C20.4166 30.5856 20.4951 30.6647 20.4951 30.9416V34.9298C20.4951 35.3333 20.4794 35.6736 20.1809 35.7606V35.9031H21.799V35.7606C21.5162 35.6894 21.4769 35.365 21.4769 34.9298ZM23.7627 34.9298V33.4026C23.7627 32.453 23.4014 32.1761 22.773 32.1761C22.3881 32.1761 21.9011 32.4451 21.634 32.7616L21.7362 32.9278C21.8618 32.8249 22.0032 32.7695 22.1289 32.7695C22.5845 32.7695 22.7887 32.9832 22.7887 33.4342V34.9298C22.7887 35.3333 22.773 35.6815 22.4745 35.7685V35.9031H24.0847V35.7685C23.8098 35.6973 23.7627 35.365 23.7627 34.9298Z" fill="#343434"/>
<path d="M27.4706 35.3017C26.9443 35.183 26.5516 34.7794 26.4888 34.004H28.9866C28.9866 32.8249 28.4917 32.2315 27.447 32.184V32.3185C27.7927 32.453 28.0283 33.0228 28.0283 33.8694H26.4888C26.4888 33.1968 26.7401 32.4688 27.125 32.3185V32.1919C26.1432 32.271 25.4755 33.0465 25.4755 34.091C25.4755 35.0168 26.1824 35.9743 27.2114 35.9743C28.2639 35.9743 28.7274 35.3492 28.853 34.9377L28.7195 34.8665C28.5231 35.2384 27.8948 35.3966 27.4706 35.3017Z" fill="#343434"/>
<path d="M31.7861 34.9377V32.1761L30.4037 32.4926V32.6271C30.7257 32.7933 30.7964 32.912 30.7964 33.181V34.9377C30.7964 35.3492 30.7886 35.6736 30.4822 35.7685V35.9031H32.1082V35.7685C31.8254 35.6894 31.7861 35.3808 31.7861 34.9377ZM32.713 32.2156C32.548 32.2868 32.2888 32.3818 31.9511 32.8328L32.0296 32.9436C32.226 32.7616 32.3988 32.7616 32.3988 32.8249C32.3988 32.9674 32.4616 33.1019 32.5794 33.2127C32.8308 33.4263 33.1921 33.3947 33.4042 33.1494C33.6163 32.912 33.5927 32.5321 33.3492 32.3185C33.1764 32.1761 32.8779 32.1444 32.713 32.2156Z" fill="#343434"/>
<path d="M42.5035 34.2413C42.315 35.0247 41.7652 35.7052 40.9562 35.8239V35.9664C41.6709 35.9505 42.2208 35.8319 42.747 35.4837L42.6371 34.2413H42.5035ZM40.9562 30.4115C41.6945 30.5064 42.1029 31.0208 42.5035 31.9862H42.6371L42.747 30.7438C42.2993 30.3798 41.6631 30.2849 40.9562 30.2611V30.4115ZM37.9871 33.1177C37.9871 34.6133 38.9296 35.8477 40.4692 35.9664V35.8239C39.7701 35.7132 39.4009 35.0722 39.4009 33.1177C39.4009 31.1632 39.7544 30.5223 40.4692 30.4115V30.269C38.9296 30.3877 37.9871 31.6222 37.9871 33.1177Z" fill="#343434"/>
<path d="M45.5396 34.9377V32.1761L44.1572 32.4926V32.6271C44.4792 32.7933 44.5499 32.912 44.5499 33.181V34.9377C44.5499 35.3492 44.542 35.6736 44.2357 35.7685V35.9031H45.8616V35.7685C45.5789 35.6894 45.5396 35.3808 45.5396 34.9377ZM46.4664 32.2156C46.3015 32.2868 46.0423 32.3818 45.7045 32.8328L45.7831 32.9436C45.9794 32.7616 46.1523 32.7616 46.1523 32.8249C46.1523 32.9674 46.2151 33.1019 46.3329 33.2127C46.5843 33.4263 46.9456 33.3947 47.1577 33.1494C47.3697 32.912 47.3462 32.5321 47.1027 32.3185C46.9299 32.1761 46.6314 32.1444 46.4664 32.2156Z" fill="#343434"/>
<path d="M49.4779 33.5054C49.6821 33.363 49.7371 33.0861 49.5957 32.8803C49.525 32.7774 49.4229 32.7221 49.3051 32.7062C49.2658 32.7062 49.2737 32.6271 49.3915 32.5321L49.3365 32.4055C48.9987 32.6113 48.9045 32.7933 48.8338 32.912C48.7552 33.0465 48.7631 33.2364 48.8574 33.3867C48.9987 33.5925 49.2737 33.64 49.4779 33.5054ZM51.8971 35.4916C51.5123 35.4916 51.5201 34.9377 51.5201 34.9377V33.7587C51.5201 32.8249 51.2373 32.1761 50.2084 32.1761C50.2084 32.1761 49.9256 32.1602 49.6271 32.2631L49.6821 32.3818C50.1534 32.2394 50.5304 32.6429 50.5304 33.3867V33.8773C49.1558 34.2255 48.496 34.3046 48.496 35.1672C48.496 35.9743 49.3993 35.9743 49.3993 35.9743C49.7842 35.9743 50.122 35.7844 50.334 35.5865L50.2398 35.452C50.177 35.4837 50.0984 35.4916 50.012 35.4916C49.5014 35.4916 49.5014 34.9693 49.5014 34.9693C49.5014 34.5658 49.7606 34.1939 50.5304 34.0198V35.2621C50.5304 35.9743 51.3237 35.9743 51.3237 35.9743C51.8186 35.9743 52.1799 35.6657 52.2427 35.4125L52.1092 35.3571C52.0621 35.4916 51.8971 35.4916 51.8971 35.4916Z" fill="#343434"/>
<path d="M55.5287 30.0237V30.1583C55.7015 30.1978 55.7644 30.2928 55.6701 30.3086C55.5523 30.3323 55.4502 30.4036 55.3952 30.5223C55.2774 30.7596 55.3716 31.0366 55.6073 31.1553C55.8351 31.2661 56.1178 31.1711 56.2357 30.9416C56.3142 30.7755 56.2906 30.546 56.1964 30.4036C56.1257 30.2849 55.8743 30.0791 55.5287 30.0237ZM55.2067 30.1503V30.0158C54.3584 30.0554 53.9028 30.5223 53.9028 32.2473H53.3922L53.4001 32.3818H53.9028V35.0089C53.9028 35.4125 53.8949 35.6815 53.5965 35.7685V35.9031H55.2067V35.7685C54.9239 35.6894 54.8846 35.4441 54.8846 35.0089V32.3818H55.7015L55.7251 32.2473H54.8846C54.8846 30.9416 55.0025 30.3244 55.2067 30.1503Z" fill="#343434"/>
<path d="M59.0161 35.4125C58.6234 35.4125 58.4349 35.183 58.4349 34.7399V32.3818H59.3382L59.3696 32.2473H58.4349V31.0208L57.453 31.1869V32.2473H57.0367L57.0603 32.3818H57.453V34.7636C57.453 35.7211 57.8222 35.9743 58.4427 35.9743C58.969 35.9743 59.4481 35.5786 59.6052 35.2067L59.4874 35.1355C59.4167 35.2542 59.2439 35.4125 59.0161 35.4125Z" fill="#343434"/>
<path d="M65.7551 30.4669V30.3323H63.2494V30.4669C63.4536 30.4669 63.7207 30.4669 63.972 31.1078L65.9436 35.9031H66.0771L66.6034 34.455L65.4016 31.3848C65.4016 31.3848 65.0638 30.4669 65.7551 30.4669ZM68.5985 30.4669V30.3323H66.0928V30.4669C66.297 30.4669 66.5719 30.4669 66.8154 31.1078L68.7399 35.9031H68.8734L69.4232 34.4708L68.245 31.3848C68.245 31.3848 67.8915 30.4669 68.5985 30.4669ZM69.5175 30.4669C70.8528 30.4669 70.1066 32.3185 70.1066 32.3185L70.2322 32.3581C70.9549 30.6568 71.4733 30.4669 71.8346 30.4669V30.3323H69.5175V30.4669Z" fill="#343434"/>
<path d="M76.2747 34.0752C76.2747 33.0781 75.662 32.2552 74.5624 32.184V32.3264C74.9944 32.3897 75.1122 32.7933 75.1122 34.0752C75.1122 35.3571 74.9944 35.7606 74.5624 35.8239V35.9664C75.662 35.8952 76.2747 35.0643 76.2747 34.0752ZM73.6905 34.0752C73.6905 32.7933 73.8083 32.3897 74.2403 32.3264V32.184C73.1485 32.2552 72.5358 33.0781 72.5358 34.0752C72.5358 35.0643 73.1485 35.8952 74.2403 35.9664V35.8239C73.8083 35.7606 73.6905 35.3571 73.6905 34.0752Z" fill="#343434"/>
<path d="M79.0526 34.9377V32.1761L77.6702 32.4926V32.6271C77.9922 32.7933 78.0629 32.912 78.0629 33.181V34.9377C78.0629 35.3492 78.0551 35.6736 77.7487 35.7685V35.9031H79.3747V35.7685C79.0919 35.6894 79.0526 35.3808 79.0526 34.9377ZM79.9795 32.2156C79.8146 32.2868 79.5553 32.3818 79.2176 32.8328L79.2961 32.9436C79.4925 32.7616 79.6653 32.7616 79.6653 32.8249C79.6653 32.9674 79.7281 33.1019 79.846 33.2127C80.0973 33.4263 80.4586 33.3947 80.6707 33.1494C80.8828 32.912 80.8592 32.5321 80.6157 32.3185C80.4429 32.1761 80.1444 32.1444 79.9795 32.2156Z" fill="#343434"/>
<path d="M83.3319 34.9456V30L81.9574 30.2928V30.4273C82.2715 30.546 82.3501 30.6647 82.3501 30.9416V34.9456C82.3501 35.3492 82.3344 35.6815 82.0359 35.7685V35.9031H83.654V35.7685C83.3712 35.6973 83.3319 35.3808 83.3319 34.9456ZM85.4292 35.3729C85.4292 35.3729 85.4134 35.3729 84.2509 33.7191C85.2956 32.4214 86.0968 32.3976 86.2382 32.3818V32.2473H84.3295V32.3818C85.3506 32.3501 84.2274 33.4975 84.2274 33.4975L83.489 34.3046C83.489 34.3046 83.6933 34.6212 83.9289 34.9693C84.4552 35.7606 84.5259 35.9031 85.0678 35.9031H86.1753V35.7685C86.0418 35.7606 85.6884 35.7369 85.4292 35.3729Z" fill="#343434"/>
<path d="M87.7431 33.9644H87.6096V35.4837C87.6096 35.4837 88.1673 35.9189 89.5104 35.9664V35.8239C88.3086 35.6736 87.9081 34.4154 87.7431 33.9644ZM90.5158 32.9199L89.3062 32.1128C88.395 31.5114 88.5443 30.5856 89.1884 30.4036V30.269C88.1516 30.3403 87.8138 30.8625 87.8138 30.8625C87.1619 31.725 87.5782 32.5163 88.6935 33.2206L89.9032 33.9881C90.7593 34.6212 90.6415 35.634 90.0053 35.8318V35.9664C91.0735 35.8872 91.3956 35.3254 91.3956 35.3254C91.9847 34.4629 91.5527 33.6083 90.5158 32.9199ZM91.3249 31.9703H91.4584V30.6409C91.4584 30.6409 90.8614 30.3086 89.6832 30.269V30.4115C90.7593 30.546 91.1835 31.5826 91.3249 31.9703Z" fill="#343434"/>
<path d="M94.5705 34.9298V30L93.196 30.3323V30.4669C93.5102 30.5856 93.5887 30.6647 93.5887 30.9416V34.9298C93.5887 35.3333 93.573 35.6736 93.2745 35.7606V35.9031H94.8926V35.7606C94.6098 35.6894 94.5705 35.365 94.5705 34.9298ZM96.8563 34.9298V33.4026C96.8563 32.453 96.4949 32.1761 95.8666 32.1761C95.4817 32.1761 94.9947 32.4451 94.7276 32.7616L94.8297 32.9278C94.9554 32.8249 95.0968 32.7695 95.2225 32.7695C95.6781 32.7695 95.8823 32.9832 95.8823 33.4342V34.9298C95.8823 35.3333 95.8666 35.6815 95.5681 35.7685V35.9031H97.1783V35.7685C96.9034 35.6973 96.8563 35.365 96.8563 34.9298Z" fill="#343434"/>
<path d="M102.347 34.0752C102.347 33.0781 101.735 32.2552 100.635 32.184V32.3264C101.067 32.3897 101.185 32.7933 101.185 34.0752C101.185 35.3571 101.067 35.7606 100.635 35.8239V35.9664C101.735 35.8952 102.347 35.0643 102.347 34.0752ZM99.763 34.0752C99.763 32.7933 99.8808 32.3897 100.313 32.3264V32.184C99.221 32.2552 98.6084 33.0781 98.6084 34.0752C98.6084 35.0643 99.221 35.8952 100.313 35.9664V35.8239C99.8808 35.7606 99.763 35.3571 99.763 34.0752Z" fill="#343434"/>
<path d="M106.327 32.1761C105.958 32.1761 105.384 32.3501 105.133 32.817V32.1761L103.766 32.4926V32.6271C104.08 32.7458 104.159 32.8012 104.159 33.0702V37.0979C104.159 37.5015 104.143 37.7784 103.845 37.8655V38H105.455V37.8655C105.18 37.7943 105.133 37.541 105.133 37.0979V35.729C105.329 35.8635 105.596 35.9426 105.887 35.9664V35.8318C105.534 35.7606 105.188 35.4758 105.133 34.7715V33.3234C105.188 32.8487 105.471 32.4688 105.942 32.4688C106.578 32.4688 106.877 32.9041 106.877 34.178C106.877 35.2621 106.673 35.7448 106.209 35.8318V35.9743C107.238 35.9189 108 35.3254 108 34.1068C108 32.8645 107.215 32.1761 106.327 32.1761Z" fill="#343434"/>
</svg>
